<?xml version="1.0" encoding="UTF-8"?><svg id="a" xmlns="http://www.w3.org/2000/svg" width="57" height="57" viewBox="0 0 57 57"><polygon points="29 21 29 18 28 18 28 21 27 21 27 22 27 23 28 23 28 22 29 22 29 23 30 23 30 22 30 21 29 21" fill="#ffa6a6" stroke-width="0"/><polygon points="36 29 39 29 39 28 36 28 36 27 35 27 34 27 34 28 35 28 35 29 34 29 34 30 35 30 36 30 36 29" fill="#ffa6a6" stroke-width="0"/><polygon points="28 36 28 39 29 39 29 36 30 36 30 35 30 34 29 34 29 35 28 35 28 34 27 34 27 35 27 36 28 36" fill="#ffa6a6" stroke-width="0"/><polygon points="21 28 18 28 18 29 21 29 21 30 22 30 23 30 23 29 22 29 22 28 23 28 23 27 22 27 21 27 21 28" fill="#ffa6a6" stroke-width="0"/><rect x="23" y="23" width="1" height="1" fill="#ffa6a6" stroke-width="0"/><rect x="33" y="23" width="1" height="1" fill="#ffa6a6" stroke-width="0"/><rect x="23" y="33" width="1" height="1" fill="#ffa6a6" stroke-width="0"/><rect x="33" y="33" width="1" height="1" fill="#ffa6a6" stroke-width="0"/><g id="b"><polygon points="33 26 32 26 32 25 31 25 31 24 26 24 26 25 25 25 25 26 24 26 24 31 25 31 25 32 26 32 26 33 31 33 31 32 32 32 32 31 33 31 33 26" fill="#ffa6a6" stroke-width="0"/></g><g id="c"><rect x="27" y="27" width="3" height="3" fill="red" stroke-width="0"/></g><g id="d"><rect x="28" y="28" width="1" height="1" fill="#ffa6a6" stroke-width="0"/></g></svg>